<svg viewBox="0 0 800 500" xmlns="http://www.w3.org/2000/svg" xmlns:xlink="http://www.w3.org/1999/xlink" width="100%" id="blobSvg">
  <g transform="translate(-263, 226)">
    <path class="blob" d="M461,296.5Q444,343,417,384Q390,425,345,446.5Q300,468,250,469Q200,470,159.5,442Q119,414,87.5,379Q56,344,47,297Q38,250,42.5,201Q47,152,79.5,114.5Q112,77,154.5,48Q197,19,247,31.5Q297,44,338.5,65.5Q380,87,405.5,125Q431,163,454.5,206.5Q478,250,461,296.5Z" fill="#fdcb6e"></path>
  </g>
  <g transform="translate(78, -239)">
    <path class="blob" d="M461,296.5Q444,343,417,384Q390,425,345,446.5Q300,468,250,469Q200,470,159.5,442Q119,414,87.5,379Q56,344,47,297Q38,250,42.5,201Q47,152,79.5,114.5Q112,77,154.5,48Q197,19,247,31.5Q297,44,338.5,65.5Q380,87,405.5,125Q431,163,454.5,206.5Q478,250,461,296.5Z" fill="#fdcb6e"></path>
  </g>
</svg>